# xmcd
#
# Track frame offsets: 
#        150
#        17577
#        34017
#        53802
#        71097
#        86202
#        101377
#        116942
#        135512
#        158750
#        174380
#        191200
#        207187
#        220612
#
# Disc length: 3185 seconds
#
# Revision: 0
# Processed by: cddbd v1.5.2PL0 Copyright (c) Steve Scherf et al.
# Submitted via: ExactAudioCopyFreeDBPlugin 1.0
#
DISCID=c10c6f0e
DTITLE=Trisha Yearwood - Where Your Road Leads
DYEAR=1998
DGENRE=Country
TTITLE0=There Goes My Baby
TTITLE1=Love Wouldn't Lie To Me
TTITLE2=I'll Still Love You More
TTITLE3=That Ain't The Way I Heard It
TTITLE4=Never Let You Go Again
TTITLE5=Heart Like A Sad Song
TTITLE6=Wouldn't Any Woman
TTITLE7=I Don't Want To Be The One 
TTITLE8=Bring Me All Your Lovin'
TTITLE9=Where Your Road Leads
TTITLE10=I Have A Love
TTITLE11=One More Chance
TTITLE12=Powerful Thing
TTITLE13=How Do I Live
EXTD=
EXTT0=
EXTT1=
EXTT2=
EXTT3=
EXTT4=
EXTT5=
EXTT6=
EXTT7=
EXTT8=
EXTT9=
EXTT10=
EXTT11=
EXTT12=
EXTT13=
PLAYORDER=
